<svg width="302" height="404" viewBox="0 0 302 404" fill="none" xmlns="http://www.w3.org/2000/svg">
<path d="M92 246L212.367 259.494L229 315.269L189.169 358L117.824 310.771L147.588 252.232L92 246Z" fill="#B2B2B2"/>
<path d="M117.513 310L189 356.401L161.103 401L53 382.98L56.0513 344.238L117.513 310Z" fill="#A1A1A1"/>
<path d="M295 270L289.744 383.926L228.86 392L189 356.118L228.86 315.301L295 270Z" fill="#727272"/>
<path d="M272.603 221L295 270.292L228.249 316L212 259.986L272.603 221Z" fill="#BFBFBF"/>
<path d="M246.298 195.075L273 220.775L212.155 260L91.7774 246.925L41 215.364L101.408 182L246.298 195.075Z" fill="#D7D3D3"/>
<path d="M4 301L56 344.755L52.4746 384L16.339 364.603L4 301Z" fill="#848484"/>
<path d="M92.2439 247L148 252.791L117.707 310.7L55.3659 345L4 300.9L92.2439 247Z" fill="#CCCACA"/>
<path d="M41.105 215L92 246.518L5 301L41.105 215Z" fill="#B2B2B2"/>
<path d="M134 251L164 254.478L139.373 271L134 251Z" fill="black"/>
<path d="M188.865 356L230 391.381L161 400L188.865 356Z" fill="#525252"/>
<path d="M53 384L55.6147 345.152L118.367 310.369L148 253" stroke="black" stroke-width="5"/>
<path d="M234.761 357.076L229.066 385.651C228.538 388.302 230.735 390.702 233.422 390.41L286.221 384.661C288.17 384.449 289.677 382.856 289.783 380.899L293.815 305.918C293.921 303.938 292.561 302.179 290.617 301.784L273.344 298.273C272.473 298.096 271.568 298.214 270.771 298.609L241.861 312.931C239.389 314.155 238.869 317.454 240.844 319.379L255.166 333.339C256.871 335 256.756 337.775 254.918 339.289L236.14 354.771C235.428 355.358 234.942 356.172 234.761 357.076Z" fill="#185800" fill-opacity="0.47"/>
<path d="M246.011 195.014L102.104 182L41.3047 216.107L5 300.924L16.81 363.303L53.1146 383.049L161.591 401L289.314 383.498L295 269.959L273.13 220.594L246.011 195.014Z" stroke="black" stroke-width="5"/>
<path d="M231 393L189 356.058L228.835 316" stroke="black" stroke-width="2"/>
<path d="M65.6628 220.396L81.9685 201.458C84.8962 198.058 80.8659 193.155 76.9633 195.369L42.6403 214.844C41.8611 215.286 41.2528 215.977 40.9131 216.806L8.55512 295.765C7.40378 298.575 9.67939 301.592 12.6971 301.258L33.9702 298.899C34.2807 298.865 34.5941 298.867 34.9041 298.905L57.0345 301.655C58.7025 301.862 60.3222 301.004 61.0882 299.508L76.5701 269.267C76.772 268.873 77.0379 268.515 77.3571 268.208L93.6166 252.561C95.3912 250.854 95.2158 247.963 93.2477 246.483L66.2894 226.202C64.4412 224.812 64.1538 222.148 65.6628 220.396Z" fill="#104203" fill-opacity="0.62"/>
<path d="M161.329 213.02L137.414 214.787C135.059 214.961 134.898 218.358 137.227 218.753L156.194 221.972C156.305 221.991 156.417 222 156.529 222H186.625C189.043 222 189.386 218.508 187.014 218.038L161.865 213.053C161.688 213.018 161.508 213.007 161.329 213.02Z" fill="black" stroke="black" stroke-width="2"/>
<mask id="path-17-inside-1_332_170" fill="white">
<path d="M207 31C207 48.1208 192.897 62 175.5 62C158.103 62 144 48.1208 144 31C144 13.8792 158.103 0 175.5 0C192.897 0 207 13.8792 207 31ZM159.75 31C159.75 39.5604 166.802 46.5 175.5 46.5C184.198 46.5 191.25 39.5604 191.25 31C191.25 22.4396 184.198 15.5 175.5 15.5C166.802 15.5 159.75 22.4396 159.75 31Z"/>
</mask>
<path d="M207 31C207 48.1208 192.897 62 175.5 62C158.103 62 144 48.1208 144 31C144 13.8792 158.103 0 175.5 0C192.897 0 207 13.8792 207 31ZM159.75 31C159.75 39.5604 166.802 46.5 175.5 46.5C184.198 46.5 191.25 39.5604 191.25 31C191.25 22.4396 184.198 15.5 175.5 15.5C166.802 15.5 159.75 22.4396 159.75 31Z" fill="#C9A66B" stroke="black" stroke-width="8" mask="url(#path-17-inside-1_332_170)"/>
<g filter="url(#filter0_d_332_170)">
<path d="M164.444 61L152 217H164.444L180 61H164.444Z" fill="#C9A66B"/>
<path d="M164.444 61L152 217H164.444L180 61H164.444Z" stroke="black" stroke-width="5"/>
</g>
<path d="M199.676 209L167 205.938L172.07 160L207 163.062L204.183 178.885L186.155 176.844L184.465 190.115L201.366 192.156L199.676 209Z" fill="#C9A66B" stroke="black" stroke-width="4"/>
<defs>
<filter id="filter0_d_332_170" x="145.293" y="58.5" width="41.4691" height="169" filterUnits="userSpaceOnUse" color-interpolation-filters="sRGB">
<feFlood flood-opacity="0" result="BackgroundImageFix"/>
<feColorMatrix in="SourceAlpha" type="matrix" values="0 0 0 0 0 0 0 0 0 0 0 0 0 0 0 0 0 0 127 0" result="hardAlpha"/>
<feOffset dy="4"/>
<feGaussianBlur stdDeviation="2"/>
<feComposite in2="hardAlpha" operator="out"/>
<feColorMatrix type="matrix" values="0 0 0 0 0 0 0 0 0 0 0 0 0 0 0 0 0 0 0.25 0"/>
<feBlend mode="normal" in2="BackgroundImageFix" result="effect1_dropShadow_332_170"/>
<feBlend mode="normal" in="SourceGraphic" in2="effect1_dropShadow_332_170" result="shape"/>
</filter>
</defs>
</svg>
