<svg width="1265" height="473" viewBox="0 0 1265 473" fill="none" xmlns="http://www.w3.org/2000/svg">
<path d="M92 254L212.367 267.494L229 323.269L189.169 366L117.824 318.771L147.588 260.232L92 254Z" fill="#B2B2B2"/>
<path d="M117.513 318L189 364.401L161.103 409L53 390.98L56.0513 352.238L117.513 318Z" fill="#A1A1A1"/>
<path d="M295 278L289.744 391.926L228.86 400L189 364.118L228.86 323.301L295 278Z" fill="#727272"/>
<path d="M272.603 229L295 278.292L228.249 324L212 267.986L272.603 229Z" fill="#BFBFBF"/>
<path d="M246.298 203.075L273 228.775L212.155 268L91.7774 254.925L41 223.364L101.408 190L246.298 203.075Z" fill="#D7D3D3"/>
<path d="M4 309L56 352.755L52.4746 392L16.339 372.603L4 309Z" fill="#848484"/>
<path d="M92.2439 255L148 260.791L117.707 318.7L55.3659 353L4 308.9L92.2439 255Z" fill="#CCCACA"/>
<path d="M41.105 223L92 254.518L5 309L41.105 223Z" fill="#B2B2B2"/>
<path d="M134 259L164 262.478L139.373 279L134 259Z" fill="black"/>
<path d="M188.865 364L230 399.381L161 408L188.865 364Z" fill="#525252"/>
<path d="M53 392L55.6147 353.152L118.367 318.369L148 261" stroke="black" stroke-width="5"/>
<path d="M234.761 365.076L229.066 393.651C228.538 396.302 230.735 398.702 233.422 398.41L286.221 392.661C288.17 392.449 289.677 390.856 289.783 388.899L293.815 313.918C293.921 311.938 292.561 310.179 290.617 309.784L273.344 306.273C272.473 306.096 271.568 306.214 270.771 306.609L241.861 320.931C239.389 322.155 238.869 325.454 240.844 327.379L255.166 341.339C256.871 343 256.756 345.775 254.918 347.289L236.14 362.771C235.428 363.358 234.942 364.172 234.761 365.076Z" fill="#185800" fill-opacity="0.47"/>
<path d="M246.011 203.014L102.104 190L41.3047 224.107L5 308.924L16.81 371.303L53.1146 391.049L161.591 409L289.314 391.498L295 277.959L273.13 228.594L246.011 203.014Z" stroke="black" stroke-width="5"/>
<path d="M231 401L189 364.058L228.835 324" stroke="black" stroke-width="2"/>
<path d="M65.6628 228.396L81.9685 209.458C84.8962 206.058 80.8659 201.155 76.9633 203.369L42.6403 222.844C41.8611 223.286 41.2528 223.977 40.9131 224.806L8.55512 303.765C7.40378 306.575 9.67939 309.592 12.6971 309.258L33.9702 306.899C34.2807 306.865 34.5941 306.867 34.9041 306.905L57.0345 309.655C58.7025 309.862 60.3222 309.004 61.0882 307.508L76.5701 277.267C76.772 276.873 77.0379 276.515 77.3571 276.208L93.6166 260.561C95.3912 258.854 95.2158 255.963 93.2477 254.483L66.2894 234.202C64.4412 232.812 64.1538 230.148 65.6628 228.396Z" fill="#104203" fill-opacity="0.62"/>
<path d="M161.329 221.02L137.414 222.787C135.059 222.961 134.898 226.358 137.227 226.753L156.194 229.972C156.305 229.991 156.417 230 156.529 230H186.625C189.043 230 189.386 226.508 187.014 226.038L161.865 221.053C161.688 221.018 161.508 221.007 161.329 221.02Z" fill="black" stroke="black" stroke-width="2"/>
<mask id="path-17-inside-1_42_57" fill="white">
<path d="M207 39C207 56.1208 192.897 70 175.5 70C158.103 70 144 56.1208 144 39C144 21.8792 158.103 8 175.5 8C192.897 8 207 21.8792 207 39ZM159.75 39C159.75 47.5604 166.802 54.5 175.5 54.5C184.198 54.5 191.25 47.5604 191.25 39C191.25 30.4396 184.198 23.5 175.5 23.5C166.802 23.5 159.75 30.4396 159.75 39Z"/>
</mask>
<path d="M207 39C207 56.1208 192.897 70 175.5 70C158.103 70 144 56.1208 144 39C144 21.8792 158.103 8 175.5 8C192.897 8 207 21.8792 207 39ZM159.75 39C159.75 47.5604 166.802 54.5 175.5 54.5C184.198 54.5 191.25 47.5604 191.25 39C191.25 30.4396 184.198 23.5 175.5 23.5C166.802 23.5 159.75 30.4396 159.75 39Z" fill="#C9A66B" stroke="black" stroke-width="8" mask="url(#path-17-inside-1_42_57)"/>
<g filter="url(#filter0_d_42_57)">
<path d="M164.444 69L152 225H164.444L180 69H164.444Z" fill="#C9A66B"/>
<path d="M164.444 69L152 225H164.444L180 69H164.444Z" stroke="black" stroke-width="5"/>
</g>
<path d="M199.676 217L167 213.938L172.07 168L207 171.062L204.183 186.885L186.155 184.844L184.465 198.115L201.366 200.156L199.676 217Z" fill="#C9A66B" stroke="black" stroke-width="4"/>
<path d="M347.383 370.768V326.608L341.911 326.32V318.16H364.951V325.936L361.783 326.224C359.927 326.416 358.999 327.44 358.999 329.296V350.416L378.583 326.608L373.207 326.32V318.16H395.671V325.936L392.503 326.224C391.287 326.352 390.007 327.248 388.663 328.912L375.031 345.616L392.023 373.552L397.111 373.84V382H372.535V374.224L375.511 373.936C376.791 373.808 377.431 373.296 377.431 372.4C377.431 372.016 377.271 371.504 376.951 370.864L367.447 354.448L358.999 364.624V373.552L364.471 373.84V382H341.431V374.224L344.599 373.936C345.559 373.808 346.263 373.552 346.711 373.168C347.159 372.72 347.383 371.92 347.383 370.768ZM425.342 332.272C430.142 332.272 433.95 333.456 436.766 335.824C439.582 338.128 440.99 341.392 440.99 345.616C440.99 348.432 440.382 350.928 439.166 353.104C437.95 355.216 436.446 356.88 434.654 358.096C432.862 359.312 430.686 360.304 428.126 361.072C423.838 362.352 419.006 362.992 413.63 362.992C413.822 366.384 414.878 369.136 416.798 371.248C418.718 373.296 421.662 374.32 425.63 374.32C429.598 374.32 433.566 372.912 437.534 370.096L441.182 377.872C439.902 379.024 437.726 380.208 434.654 381.424C431.646 382.64 428.19 383.248 424.286 383.248C416.478 383.248 410.75 381.104 407.102 376.816C403.454 372.464 401.63 366.512 401.63 358.96C401.63 351.408 403.71 345.072 407.87 339.952C412.03 334.832 417.854 332.272 425.342 332.272ZM420.926 354.256C423.294 353.808 425.47 352.88 427.454 351.472C429.438 350 430.43 348.272 430.43 346.288C430.43 342.384 428.51 340.432 424.67 340.432C421.086 340.432 418.334 341.872 416.414 344.752C414.494 347.568 413.438 350.96 413.246 354.928C416.062 354.864 418.622 354.64 420.926 354.256ZM483.074 380.176V372.88C479.554 377.872 474.37 380.368 467.522 380.368C457.602 380.368 452.642 374.832 452.642 363.76V344.464C452.642 342.736 451.842 341.84 450.242 341.776L447.17 341.584V333.712H464.066V361.264C464.066 364.656 464.546 367.216 465.506 368.944C466.466 370.672 468.45 371.536 471.458 371.536C474.466 371.536 476.866 370.608 478.658 368.752C480.514 366.896 481.442 364.656 481.442 362.032V344.656C481.442 343.568 481.25 342.832 480.866 342.448C480.546 342 479.938 341.776 479.042 341.776L475.97 341.584V333.712H492.866V380.176C492.866 387.92 490.978 393.584 487.202 397.168C483.49 400.752 477.826 402.544 470.21 402.544C462.658 402.544 456.77 401.488 452.546 399.376V386.032L461.666 385.264V389.872C461.666 391.6 462.466 392.752 464.066 393.328C465.666 393.968 467.874 394.288 470.69 394.288C478.946 394.288 483.074 389.584 483.074 380.176ZM527.929 341.008C526.393 340.432 524.537 340.144 522.361 340.144C520.185 340.144 518.425 340.656 517.081 341.68C515.801 342.64 515.161 343.856 515.161 345.328C515.161 346.736 515.385 347.856 515.833 348.688C516.345 349.456 517.113 350.128 518.137 350.704C519.737 351.536 521.657 352.272 523.897 352.912C526.137 353.488 527.801 353.968 528.889 354.352C529.977 354.672 531.321 355.248 532.921 356.08C534.585 356.912 535.833 357.808 536.665 358.768C538.905 361.136 540.025 364.176 540.025 367.888C540.025 372.688 538.265 376.464 534.745 379.216C531.289 381.904 526.873 383.248 521.497 383.248C513.689 383.248 507.801 382.256 503.833 380.272V366.928L512.473 366.256V370.864C512.473 373.68 515.161 375.088 520.537 375.088C525.913 375.088 528.601 373.136 528.601 369.232C528.601 367.824 528.121 366.672 527.161 365.776C526.265 364.88 525.369 364.272 524.473 363.952C523.577 363.632 522.489 363.312 521.209 362.992C519.993 362.672 518.777 362.352 517.561 362.032C516.409 361.712 515.129 361.296 513.721 360.784C512.377 360.208 510.873 359.408 509.209 358.384C505.945 356.272 504.313 352.752 504.313 347.824C504.313 342.832 506.073 338.992 509.593 336.304C513.113 333.616 517.529 332.272 522.841 332.272C528.217 332.272 533.529 333.552 538.777 336.112V347.632L530.137 348.304V344.272C530.137 342.672 529.401 341.584 527.929 341.008ZM555.808 323.536H562.048V333.712H574.816L573.856 341.776H562.048V367.024C562.048 369.84 562.56 371.824 563.584 372.976C564.608 374.064 566.176 374.608 568.288 374.608C570.464 374.608 572.64 373.936 574.816 372.592L577.696 379.984C574.496 382.224 570.432 383.344 565.504 383.344C562.624 383.344 560.192 382.96 558.208 382.192C556.224 381.488 554.752 380.688 553.792 379.792C552.832 378.896 552.096 377.584 551.584 375.856C551.072 374.128 550.784 372.784 550.72 371.824C550.656 370.8 550.624 369.328 550.624 367.408V341.776H543.808L544.768 334.768C547.776 334.512 550.048 333.456 551.584 331.6C553.12 329.68 554.528 326.992 555.808 323.536ZM601.545 374.992C608.521 374.992 612.009 369.36 612.009 358.096C612.009 352.4 611.209 348.08 609.609 345.136C608.073 342.192 605.449 340.72 601.737 340.72C598.089 340.72 595.401 342.128 593.673 344.944C591.945 347.76 591.081 351.6 591.081 356.464C591.081 365.488 592.745 371.152 596.073 373.456C597.545 374.48 599.369 374.992 601.545 374.992ZM579.465 357.808C579.465 353.072 580.169 348.976 581.577 345.52C582.985 342 584.873 339.312 587.241 337.456C591.785 334 596.809 332.272 602.313 332.272C606.153 332.272 609.385 332.912 612.009 334.192C614.697 335.408 616.777 336.848 618.249 338.512C619.785 340.112 621.065 342.48 622.089 345.616C623.177 348.688 623.721 352.336 623.721 356.56C623.721 365.392 621.577 372.08 617.289 376.624C613.001 381.168 607.497 383.44 600.777 383.44C594.121 383.44 588.905 381.296 585.129 377.008C581.353 372.656 579.465 366.256 579.465 357.808ZM629.608 341.392V333.712H645.832V339.952C647.496 337.584 649.704 335.728 652.456 334.384C655.208 332.976 658.184 332.272 661.384 332.272C666.248 332.272 669.992 333.68 672.616 336.496C675.304 339.248 676.648 343.408 676.648 348.976V374.032L682.12 374.32V382H659.272V374.704L662.44 374.416C663.4 374.288 664.104 374.032 664.552 373.648C665 373.2 665.224 372.4 665.224 371.248V351.472C665.224 347.952 664.68 345.36 663.592 343.696C662.504 341.968 660.424 341.104 657.352 341.104C654.344 341.104 651.944 342.064 650.152 343.984C648.36 345.904 647.464 348.176 647.464 350.8V374.032L652.936 374.32V382H630.088V374.704L633.256 374.416C634.216 374.288 634.92 374.032 635.368 373.648C635.816 373.2 636.04 372.4 636.04 371.248V344.656C636.04 342.736 635.24 341.744 633.64 341.68L629.608 341.392ZM711.842 332.272C716.642 332.272 720.45 333.456 723.266 335.824C726.082 338.128 727.49 341.392 727.49 345.616C727.49 348.432 726.882 350.928 725.666 353.104C724.45 355.216 722.946 356.88 721.154 358.096C719.362 359.312 717.186 360.304 714.626 361.072C710.338 362.352 705.506 362.992 700.13 362.992C700.322 366.384 701.378 369.136 703.298 371.248C705.218 373.296 708.162 374.32 712.13 374.32C716.098 374.32 720.066 372.912 724.034 370.096L727.682 377.872C726.402 379.024 724.226 380.208 721.154 381.424C718.146 382.64 714.69 383.248 710.786 383.248C702.978 383.248 697.25 381.104 693.602 376.816C689.954 372.464 688.13 366.512 688.13 358.96C688.13 351.408 690.21 345.072 694.37 339.952C698.53 334.832 704.354 332.272 711.842 332.272ZM707.426 354.256C709.794 353.808 711.97 352.88 713.954 351.472C715.938 350 716.93 348.272 716.93 346.288C716.93 342.384 715.01 340.432 711.17 340.432C707.586 340.432 704.834 341.872 702.914 344.752C700.994 347.568 699.938 350.96 699.746 354.928C702.562 354.864 705.122 354.64 707.426 354.256ZM771.225 371.248V327.664H763.737C762.265 327.664 761.529 328.656 761.529 330.64V335.152L751.737 334.48V318.16H801.945V334.48L792.153 335.152V330.64C792.153 329.552 791.993 328.784 791.673 328.336C791.353 327.888 790.585 327.664 789.369 327.664H782.841V373.552L790.425 373.84V382H763.353V374.224L768.441 373.936C770.297 373.744 771.225 372.848 771.225 371.248ZM824.287 371.248V327.664H816.799C815.327 327.664 814.591 328.656 814.591 330.64V335.152L804.799 334.48V318.16H855.007V334.48L845.215 335.152V330.64C845.215 329.552 845.055 328.784 844.735 328.336C844.415 327.888 843.647 327.664 842.431 327.664H835.903V373.552L843.487 373.84V382H816.415V374.224L821.503 373.936C823.359 373.744 824.287 372.848 824.287 371.248ZM859.494 382V374.224L862.662 373.936C864.518 373.744 865.446 372.848 865.446 371.248V326.608L859.974 326.32V318.16H886.182C893.606 318.16 899.302 319.536 903.27 322.288C907.238 325.04 909.222 329.552 909.222 335.824C909.222 340.176 908.07 343.76 905.766 346.576C903.526 349.392 900.838 351.44 897.702 352.72C900.006 353.552 901.83 355.504 903.174 358.576L910.086 373.648L915.558 373.84V382H891.846V374.224L894.63 373.936C896.102 373.744 896.838 373.168 896.838 372.208C896.838 371.824 896.71 371.376 896.454 370.864L891.942 361.264C891.238 359.664 890.438 358.544 889.542 357.904C888.71 357.2 887.494 356.848 885.894 356.848H877.158V373.552L883.398 373.84V382H859.494ZM877.158 347.728H885.51C893.382 347.728 897.318 344.208 897.318 337.168C897.318 333.136 896.262 330.512 894.15 329.296C892.102 328.08 888.774 327.472 884.166 327.472H877.158V347.728ZM919.588 382V374.224L922.756 373.936C924.612 373.744 925.54 372.848 925.54 371.248V326.608L920.068 326.32V318.16H947.524C954.692 318.16 960.26 319.856 964.228 323.248C968.26 326.576 970.276 331.6 970.276 338.32C970.276 345.04 968.004 350.288 963.46 354.064C958.916 357.776 952.9 359.632 945.412 359.632H937.252V373.552L946.468 373.84V382H919.588ZM937.252 350.32H944.164C953.508 350.32 958.18 346.512 958.18 338.896C958.18 334.288 956.964 331.248 954.532 329.776C952.164 328.24 948.356 327.472 943.108 327.472H937.252V350.32ZM1027.28 359.632V377.008C1021.33 381.104 1013.94 383.152 1005.11 383.152C996.277 383.152 989.365 380.4 984.373 374.896C979.445 369.328 976.981 361.104 976.981 350.224C976.981 345.424 977.589 341.104 978.805 337.264C980.085 333.424 981.717 330.256 983.701 327.76C985.749 325.264 988.117 323.184 990.805 321.52C995.925 318.512 1001.72 317.008 1008.18 317.008C1014.71 317.008 1020.79 318.32 1026.42 320.944V337.264L1016.63 337.936V330.448C1016.63 329.488 1016.5 328.784 1016.24 328.336C1015.54 327.12 1012.63 326.512 1007.51 326.512C995.157 326.512 988.981 334.16 988.981 349.456C988.981 365.584 994.549 373.648 1005.68 373.648C1010.1 373.648 1013.49 372.88 1015.86 371.344V357.04H1015.76L1008.37 356.752V348.592H1032.28V356.272L1030.07 356.464C1029.04 356.592 1028.31 356.88 1027.86 357.328C1027.48 357.712 1027.28 358.48 1027.28 359.632Z" fill="#8C6239"/>
<defs>
<filter id="filter0_d_42_57" x="145.293" y="66.5" width="41.4691" height="169" filterUnits="userSpaceOnUse" color-interpolation-filters="sRGB">
<feFlood flood-opacity="0" result="BackgroundImageFix"/>
<feColorMatrix in="SourceAlpha" type="matrix" values="0 0 0 0 0 0 0 0 0 0 0 0 0 0 0 0 0 0 127 0" result="hardAlpha"/>
<feOffset dy="4"/>
<feGaussianBlur stdDeviation="2"/>
<feComposite in2="hardAlpha" operator="out"/>
<feColorMatrix type="matrix" values="0 0 0 0 0 0 0 0 0 0 0 0 0 0 0 0 0 0 0.25 0"/>
<feBlend mode="normal" in2="BackgroundImageFix" result="effect1_dropShadow_42_57"/>
<feBlend mode="normal" in="SourceGraphic" in2="effect1_dropShadow_42_57" result="shape"/>
</filter>
</defs>
</svg>
