<svg width="1093" height="473" viewBox="0 0 1093 473" fill="none" xmlns="http://www.w3.org/2000/svg">
<path d="M92 254L212.367 267.494L229 323.269L189.169 366L117.824 318.771L147.588 260.232L92 254Z" fill="#B2B2B2"/>
<path d="M117.513 318L189 364.401L161.103 409L53 390.98L56.0513 352.238L117.513 318Z" fill="#A1A1A1"/>
<path d="M295 278L289.744 391.926L228.86 400L189 364.118L228.86 323.301L295 278Z" fill="#727272"/>
<path d="M272.603 229L295 278.292L228.249 324L212 267.986L272.603 229Z" fill="#BFBFBF"/>
<path d="M246.298 203.075L273 228.775L212.155 268L91.7774 254.925L41 223.364L101.408 190L246.298 203.075Z" fill="#D7D3D3"/>
<path d="M4 309L56 352.755L52.4746 392L16.339 372.603L4 309Z" fill="#848484"/>
<path d="M92.2439 255L148 260.791L117.707 318.7L55.3659 353L4 308.9L92.2439 255Z" fill="#CCCACA"/>
<path d="M41.105 223L92 254.518L5 309L41.105 223Z" fill="#B2B2B2"/>
<path d="M134 259L164 262.478L139.373 279L134 259Z" fill="black"/>
<path d="M188.865 364L230 399.381L161 408L188.865 364Z" fill="#525252"/>
<path d="M53 392L55.6147 353.152L118.367 318.369L148 261" stroke="black" stroke-width="5"/>
<path d="M234.761 365.076L229.066 393.651C228.538 396.302 230.735 398.702 233.422 398.41L286.221 392.661C288.17 392.449 289.677 390.856 289.783 388.899L293.815 313.918C293.921 311.938 292.561 310.179 290.617 309.784L273.344 306.273C272.473 306.096 271.568 306.214 270.771 306.609L241.861 320.931C239.389 322.155 238.869 325.454 240.844 327.379L255.166 341.339C256.871 343 256.756 345.775 254.918 347.289L236.14 362.771C235.428 363.358 234.942 364.172 234.761 365.076Z" fill="#185800" fill-opacity="0.47"/>
<path d="M246.011 203.014L102.104 190L41.3047 224.107L5 308.924L16.81 371.303L53.1146 391.049L161.591 409L289.314 391.498L295 277.959L273.13 228.594L246.011 203.014Z" stroke="black" stroke-width="5"/>
<path d="M231 401L189 364.058L228.835 324" stroke="black" stroke-width="2"/>
<path d="M65.6628 228.396L81.9685 209.458C84.8962 206.058 80.8659 201.155 76.9633 203.369L42.6403 222.844C41.8611 223.286 41.2528 223.977 40.9131 224.806L8.55512 303.765C7.40378 306.575 9.67939 309.592 12.6971 309.258L33.9702 306.899C34.2807 306.865 34.5941 306.867 34.9041 306.905L57.0345 309.655C58.7025 309.862 60.3222 309.004 61.0882 307.508L76.5701 277.267C76.772 276.873 77.0379 276.515 77.3571 276.208L93.6166 260.561C95.3912 258.854 95.2158 255.963 93.2477 254.483L66.2894 234.202C64.4412 232.812 64.1538 230.148 65.6628 228.396Z" fill="#104203" fill-opacity="0.62"/>
<path d="M161.329 221.02L137.414 222.787C135.059 222.961 134.898 226.358 137.227 226.753L156.194 229.972C156.305 229.991 156.417 230 156.529 230H186.625C189.043 230 189.386 226.508 187.014 226.038L161.865 221.053C161.688 221.018 161.508 221.007 161.329 221.02Z" fill="black" stroke="black" stroke-width="2"/>
<mask id="path-17-inside-1_42_57" fill="white">
<path d="M207 39C207 56.1208 192.897 70 175.5 70C158.103 70 144 56.1208 144 39C144 21.8792 158.103 8 175.5 8C192.897 8 207 21.8792 207 39ZM159.75 39C159.75 47.5604 166.802 54.5 175.5 54.5C184.198 54.5 191.25 47.5604 191.25 39C191.25 30.4396 184.198 23.5 175.5 23.5C166.802 23.5 159.75 30.4396 159.75 39Z"/>
</mask>
<path d="M207 39C207 56.1208 192.897 70 175.5 70C158.103 70 144 56.1208 144 39C144 21.8792 158.103 8 175.5 8C192.897 8 207 21.8792 207 39ZM159.75 39C159.75 47.5604 166.802 54.5 175.5 54.5C184.198 54.5 191.25 47.5604 191.25 39C191.25 30.4396 184.198 23.5 175.5 23.5C166.802 23.5 159.75 30.4396 159.75 39Z" fill="#C9A66B" stroke="black" stroke-width="8" mask="url(#path-17-inside-1_42_57)"/>
<g filter="url(#filter0_d_42_57)">
<path d="M164.444 69L152 225H164.444L180 69H164.444Z" fill="#C9A66B"/>
<path d="M164.444 69L152 225H164.444L180 69H164.444Z" stroke="black" stroke-width="5"/>
</g>
<path d="M199.676 217L167 213.938L172.07 168L207 171.062L204.183 186.885L186.155 184.844L184.465 198.115L201.366 200.156L199.676 217Z" fill="#C9A66B" stroke="black" stroke-width="4"/>
<path d="M382.383 374.768V330.608L376.911 330.32V322.16H399.951V329.936L396.783 330.224C394.927 330.416 393.999 331.44 393.999 333.296V354.416L413.583 330.608L408.207 330.32V322.16H430.671V329.936L427.503 330.224C426.287 330.352 425.007 331.248 423.663 332.912L410.031 349.616L427.023 377.552L432.111 377.84V386H407.535V378.224L410.511 377.936C411.791 377.808 412.431 377.296 412.431 376.4C412.431 376.016 412.271 375.504 411.951 374.864L402.447 358.448L393.999 368.624V377.552L399.471 377.84V386H376.431V378.224L379.599 377.936C380.559 377.808 381.263 377.552 381.711 377.168C382.159 376.72 382.383 375.92 382.383 374.768ZM460.342 336.272C465.142 336.272 468.95 337.456 471.766 339.824C474.582 342.128 475.99 345.392 475.99 349.616C475.99 352.432 475.382 354.928 474.166 357.104C472.95 359.216 471.446 360.88 469.654 362.096C467.862 363.312 465.686 364.304 463.126 365.072C458.838 366.352 454.006 366.992 448.63 366.992C448.822 370.384 449.878 373.136 451.798 375.248C453.718 377.296 456.662 378.32 460.63 378.32C464.598 378.32 468.566 376.912 472.534 374.096L476.182 381.872C474.902 383.024 472.726 384.208 469.654 385.424C466.646 386.64 463.19 387.248 459.286 387.248C451.478 387.248 445.75 385.104 442.102 380.816C438.454 376.464 436.63 370.512 436.63 362.96C436.63 355.408 438.71 349.072 442.87 343.952C447.03 338.832 452.854 336.272 460.342 336.272ZM455.926 358.256C458.294 357.808 460.47 356.88 462.454 355.472C464.438 354 465.43 352.272 465.43 350.288C465.43 346.384 463.51 344.432 459.67 344.432C456.086 344.432 453.334 345.872 451.414 348.752C449.494 351.568 448.438 354.96 448.246 358.928C451.062 358.864 453.622 358.64 455.926 358.256ZM518.074 384.176V376.88C514.554 381.872 509.37 384.368 502.522 384.368C492.602 384.368 487.642 378.832 487.642 367.76V348.464C487.642 346.736 486.842 345.84 485.242 345.776L482.17 345.584V337.712H499.066V365.264C499.066 368.656 499.546 371.216 500.506 372.944C501.466 374.672 503.45 375.536 506.458 375.536C509.466 375.536 511.866 374.608 513.658 372.752C515.514 370.896 516.442 368.656 516.442 366.032V348.656C516.442 347.568 516.25 346.832 515.866 346.448C515.546 346 514.938 345.776 514.042 345.776L510.97 345.584V337.712H527.866V384.176C527.866 391.92 525.978 397.584 522.202 401.168C518.49 404.752 512.826 406.544 505.21 406.544C497.658 406.544 491.77 405.488 487.546 403.376V390.032L496.666 389.264V393.872C496.666 395.6 497.466 396.752 499.066 397.328C500.666 397.968 502.874 398.288 505.69 398.288C513.946 398.288 518.074 393.584 518.074 384.176ZM562.929 345.008C561.393 344.432 559.537 344.144 557.361 344.144C555.185 344.144 553.425 344.656 552.081 345.68C550.801 346.64 550.161 347.856 550.161 349.328C550.161 350.736 550.385 351.856 550.833 352.688C551.345 353.456 552.113 354.128 553.137 354.704C554.737 355.536 556.657 356.272 558.897 356.912C561.137 357.488 562.801 357.968 563.889 358.352C564.977 358.672 566.321 359.248 567.921 360.08C569.585 360.912 570.833 361.808 571.665 362.768C573.905 365.136 575.025 368.176 575.025 371.888C575.025 376.688 573.265 380.464 569.745 383.216C566.289 385.904 561.873 387.248 556.497 387.248C548.689 387.248 542.801 386.256 538.833 384.272V370.928L547.473 370.256V374.864C547.473 377.68 550.161 379.088 555.537 379.088C560.913 379.088 563.601 377.136 563.601 373.232C563.601 371.824 563.121 370.672 562.161 369.776C561.265 368.88 560.369 368.272 559.473 367.952C558.577 367.632 557.489 367.312 556.209 366.992C554.993 366.672 553.777 366.352 552.561 366.032C551.409 365.712 550.129 365.296 548.721 364.784C547.377 364.208 545.873 363.408 544.209 362.384C540.945 360.272 539.313 356.752 539.313 351.824C539.313 346.832 541.073 342.992 544.593 340.304C548.113 337.616 552.529 336.272 557.841 336.272C563.217 336.272 568.529 337.552 573.777 340.112V351.632L565.137 352.304V348.272C565.137 346.672 564.401 345.584 562.929 345.008ZM590.808 327.536H597.048V337.712H609.816L608.856 345.776H597.048V371.024C597.048 373.84 597.56 375.824 598.584 376.976C599.608 378.064 601.176 378.608 603.288 378.608C605.464 378.608 607.64 377.936 609.816 376.592L612.696 383.984C609.496 386.224 605.432 387.344 600.504 387.344C597.624 387.344 595.192 386.96 593.208 386.192C591.224 385.488 589.752 384.688 588.792 383.792C587.832 382.896 587.096 381.584 586.584 379.856C586.072 378.128 585.784 376.784 585.72 375.824C585.656 374.8 585.624 373.328 585.624 371.408V345.776H578.808L579.768 338.768C582.776 338.512 585.048 337.456 586.584 335.6C588.12 333.68 589.528 330.992 590.808 327.536ZM636.545 378.992C643.521 378.992 647.009 373.36 647.009 362.096C647.009 356.4 646.209 352.08 644.609 349.136C643.073 346.192 640.449 344.72 636.737 344.72C633.089 344.72 630.401 346.128 628.673 348.944C626.945 351.76 626.081 355.6 626.081 360.464C626.081 369.488 627.745 375.152 631.073 377.456C632.545 378.48 634.369 378.992 636.545 378.992ZM614.465 361.808C614.465 357.072 615.169 352.976 616.577 349.52C617.985 346 619.873 343.312 622.241 341.456C626.785 338 631.809 336.272 637.313 336.272C641.153 336.272 644.385 336.912 647.009 338.192C649.697 339.408 651.777 340.848 653.249 342.512C654.785 344.112 656.065 346.48 657.089 349.616C658.177 352.688 658.721 356.336 658.721 360.56C658.721 369.392 656.577 376.08 652.289 380.624C648.001 385.168 642.497 387.44 635.777 387.44C629.121 387.44 623.905 385.296 620.129 381.008C616.353 376.656 614.465 370.256 614.465 361.808ZM664.608 345.392V337.712H680.832V343.952C682.496 341.584 684.704 339.728 687.456 338.384C690.208 336.976 693.184 336.272 696.384 336.272C701.248 336.272 704.992 337.68 707.616 340.496C710.304 343.248 711.648 347.408 711.648 352.976V378.032L717.12 378.32V386H694.272V378.704L697.44 378.416C698.4 378.288 699.104 378.032 699.552 377.648C700 377.2 700.224 376.4 700.224 375.248V355.472C700.224 351.952 699.68 349.36 698.592 347.696C697.504 345.968 695.424 345.104 692.352 345.104C689.344 345.104 686.944 346.064 685.152 347.984C683.36 349.904 682.464 352.176 682.464 354.8V378.032L687.936 378.32V386H665.088V378.704L668.256 378.416C669.216 378.288 669.92 378.032 670.368 377.648C670.816 377.2 671.04 376.4 671.04 375.248V348.656C671.04 346.736 670.24 345.744 668.64 345.68L664.608 345.392ZM746.842 336.272C751.642 336.272 755.45 337.456 758.266 339.824C761.082 342.128 762.49 345.392 762.49 349.616C762.49 352.432 761.882 354.928 760.666 357.104C759.45 359.216 757.946 360.88 756.154 362.096C754.362 363.312 752.186 364.304 749.626 365.072C745.338 366.352 740.506 366.992 735.13 366.992C735.322 370.384 736.378 373.136 738.298 375.248C740.218 377.296 743.162 378.32 747.13 378.32C751.098 378.32 755.066 376.912 759.034 374.096L762.682 381.872C761.402 383.024 759.226 384.208 756.154 385.424C753.146 386.64 749.69 387.248 745.786 387.248C737.978 387.248 732.25 385.104 728.602 380.816C724.954 376.464 723.13 370.512 723.13 362.96C723.13 355.408 725.21 349.072 729.37 343.952C733.53 338.832 739.354 336.272 746.842 336.272ZM742.426 358.256C744.794 357.808 746.97 356.88 748.954 355.472C750.938 354 751.93 352.272 751.93 350.288C751.93 346.384 750.01 344.432 746.17 344.432C742.586 344.432 739.834 345.872 737.914 348.752C735.994 351.568 734.938 354.96 734.746 358.928C737.562 358.864 740.122 358.64 742.426 358.256ZM806.225 375.248V331.664H798.737C797.265 331.664 796.529 332.656 796.529 334.64V339.152L786.737 338.48V322.16H836.945V338.48L827.153 339.152V334.64C827.153 333.552 826.993 332.784 826.673 332.336C826.353 331.888 825.585 331.664 824.369 331.664H817.841V377.552L825.425 377.84V386H798.353V378.224L803.441 377.936C805.297 377.744 806.225 376.848 806.225 375.248ZM859.287 375.248V331.664H851.799C850.327 331.664 849.591 332.656 849.591 334.64V339.152L839.799 338.48V322.16H890.007V338.48L880.215 339.152V334.64C880.215 333.552 880.055 332.784 879.735 332.336C879.415 331.888 878.647 331.664 877.431 331.664H870.903V377.552L878.487 377.84V386H851.415V378.224L856.503 377.936C858.359 377.744 859.287 376.848 859.287 375.248ZM894.494 386V378.224L897.662 377.936C899.518 377.744 900.446 376.848 900.446 375.248V330.608L894.974 330.32V322.16H921.182C928.606 322.16 934.302 323.536 938.27 326.288C942.238 329.04 944.222 333.552 944.222 339.824C944.222 344.176 943.07 347.76 940.766 350.576C938.526 353.392 935.838 355.44 932.702 356.72C935.006 357.552 936.83 359.504 938.174 362.576L945.086 377.648L950.558 377.84V386H926.846V378.224L929.63 377.936C931.102 377.744 931.838 377.168 931.838 376.208C931.838 375.824 931.71 375.376 931.454 374.864L926.942 365.264C926.238 363.664 925.438 362.544 924.542 361.904C923.71 361.2 922.494 360.848 920.894 360.848H912.158V377.552L918.398 377.84V386H894.494ZM912.158 351.728H920.51C928.382 351.728 932.318 348.208 932.318 341.168C932.318 337.136 931.262 334.512 929.15 333.296C927.102 332.08 923.774 331.472 919.166 331.472H912.158V351.728ZM954.588 386V378.224L957.756 377.936C959.612 377.744 960.54 376.848 960.54 375.248V330.608L955.068 330.32V322.16H982.524C989.692 322.16 995.26 323.856 999.228 327.248C1003.26 330.576 1005.28 335.6 1005.28 342.32C1005.28 349.04 1003 354.288 998.46 358.064C993.916 361.776 987.9 363.632 980.412 363.632H972.252V377.552L981.468 377.84V386H954.588ZM972.252 354.32H979.164C988.508 354.32 993.18 350.512 993.18 342.896C993.18 338.288 991.964 335.248 989.532 333.776C987.164 332.24 983.356 331.472 978.108 331.472H972.252V354.32ZM1062.28 363.632V381.008C1056.33 385.104 1048.94 387.152 1040.11 387.152C1031.28 387.152 1024.36 384.4 1019.37 378.896C1014.44 373.328 1011.98 365.104 1011.98 354.224C1011.98 349.424 1012.59 345.104 1013.8 341.264C1015.08 337.424 1016.72 334.256 1018.7 331.76C1020.75 329.264 1023.12 327.184 1025.8 325.52C1030.92 322.512 1036.72 321.008 1043.18 321.008C1049.71 321.008 1055.79 322.32 1061.42 324.944V341.264L1051.63 341.936V334.448C1051.63 333.488 1051.5 332.784 1051.24 332.336C1050.54 331.12 1047.63 330.512 1042.51 330.512C1030.16 330.512 1023.98 338.16 1023.98 353.456C1023.98 369.584 1029.55 377.648 1040.68 377.648C1045.1 377.648 1048.49 376.88 1050.86 375.344V361.04H1050.76L1043.37 360.752V352.592H1067.28V360.272L1065.07 360.464C1064.04 360.592 1063.31 360.88 1062.86 361.328C1062.48 361.712 1062.28 362.48 1062.28 363.632Z" fill="#8C6239"/>
<defs>
<filter id="filter0_d_42_57" x="145.293" y="66.5" width="41.4691" height="169" filterUnits="userSpaceOnUse" color-interpolation-filters="sRGB">
<feFlood flood-opacity="0" result="BackgroundImageFix"/>
<feColorMatrix in="SourceAlpha" type="matrix" values="0 0 0 0 0 0 0 0 0 0 0 0 0 0 0 0 0 0 127 0" result="hardAlpha"/>
<feOffset dy="4"/>
<feGaussianBlur stdDeviation="2"/>
<feComposite in2="hardAlpha" operator="out"/>
<feColorMatrix type="matrix" values="0 0 0 0 0 0 0 0 0 0 0 0 0 0 0 0 0 0 0.25 0"/>
<feBlend mode="normal" in2="BackgroundImageFix" result="effect1_dropShadow_42_57"/>
<feBlend mode="normal" in="SourceGraphic" in2="effect1_dropShadow_42_57" result="shape"/>
</filter>
</defs>
</svg>
