<svg width="35" height="35" viewBox="0 0 35 35" fill="none" xmlns="http://www.w3.org/2000/svg">
<g clip-path="url(#clip0_169_18)">
<path d="M17.5 35C27.165 35 35 27.165 35 17.5C35 7.83502 27.165 0 17.5 0C7.83502 0 0 7.83502 0 17.5C0 27.165 7.83502 35 17.5 35Z" fill="#FF4500"/>
<path d="M29.1667 17.5C29.1667 16.0877 28.0205 14.9415 26.6082 14.9415C25.9123 14.9415 25.2982 15.2076 24.848 15.6579C23.1082 14.4094 20.693 13.5907 18.0322 13.4883L19.1988 8.02342L22.9854 8.82166C23.0263 9.78365 23.8246 10.5614 24.807 10.5614C25.8099 10.5614 26.6287 9.74272 26.6287 8.73979C26.6287 7.73687 25.8099 6.91815 24.807 6.91815C24.0906 6.91815 23.4766 7.32751 23.1901 7.94154L18.9532 7.04096C18.8304 7.02049 18.7076 7.04096 18.6053 7.10236C18.5029 7.16377 18.4415 7.26611 18.4006 7.38891L17.1111 13.4883C14.3889 13.5702 11.9532 14.3684 10.193 15.6579C9.74269 15.2281 9.10819 14.9415 8.43275 14.9415C7.02047 14.9415 5.87427 16.0877 5.87427 17.5C5.87427 18.5439 6.4883 19.424 7.38889 19.8334C7.34795 20.079 7.32748 20.3451 7.32748 20.6111C7.32748 24.541 11.8918 27.7135 17.5409 27.7135C23.1901 27.7135 27.7544 24.541 27.7544 20.6111C27.7544 20.3451 27.7339 20.0994 27.693 19.8538C28.5322 19.4445 29.1667 18.5439 29.1667 17.5ZM11.6667 19.3217C11.6667 18.3187 12.4854 17.5 13.4883 17.5C14.4912 17.5 15.3099 18.3187 15.3099 19.3217C15.3099 20.3246 14.4912 21.1433 13.4883 21.1433C12.4854 21.1433 11.6667 20.3246 11.6667 19.3217ZM21.8392 24.1316C20.5906 25.3801 18.2164 25.462 17.5205 25.462C16.8246 25.462 14.4298 25.3597 13.2018 24.1316C13.0175 23.9474 13.0175 23.6404 13.2018 23.4562C13.386 23.272 13.693 23.272 13.8772 23.4562C14.655 24.2339 16.3333 24.5205 17.5409 24.5205C18.7485 24.5205 20.4064 24.2339 21.2047 23.4562C21.3889 23.272 21.6959 23.272 21.8801 23.4562C22.0234 23.6608 22.0234 23.9474 21.8392 24.1316ZM21.5117 21.1433C20.5088 21.1433 19.6901 20.3246 19.6901 19.3217C19.6901 18.3187 20.5088 17.5 21.5117 17.5C22.5146 17.5 23.3333 18.3187 23.3333 19.3217C23.3333 20.3246 22.5146 21.1433 21.5117 21.1433Z" fill="white"/>
</g>
<defs>
<clipPath id="clip0_169_18">
<rect width="35" height="35" fill="white"/>
</clipPath>
</defs>
</svg>
