<svg width="35" height="35" viewBox="0 0 35 35" fill="none" xmlns="http://www.w3.org/2000/svg">
<path d="M11.0068 31.7198C24.2144 31.7198 31.4384 20.7774 31.4384 11.2882C31.4384 10.9774 31.4384 10.668 31.4174 10.36C32.8228 9.34345 34.0359 8.08481 35 6.64298C33.6895 7.22398 32.2992 7.60483 30.8756 7.77278C32.3747 6.87545 33.4967 5.46392 34.0326 3.80098C32.6231 4.63749 31.0809 5.22697 29.4728 5.54398C28.3901 4.39274 26.9582 3.63041 25.3986 3.37498C23.839 3.11954 22.2387 3.38523 20.8454 4.13093C19.452 4.87663 18.3432 6.06077 17.6907 7.50011C17.0381 8.93945 16.8781 10.5537 17.2354 12.0932C14.3805 11.95 11.5876 11.208 9.03796 9.91548C6.48835 8.62295 4.23903 6.80873 2.436 4.59058C1.51773 6.1714 1.23648 8.04278 1.64952 9.82369C2.06256 11.6046 3.13883 13.1611 4.6592 14.1764C3.51638 14.1429 2.39844 13.8346 1.4 13.2776V13.3686C1.40045 15.0265 1.97437 16.6332 3.0244 17.9162C4.07442 19.1992 5.53592 20.0795 7.161 20.4078C6.10383 20.6961 4.99461 20.7383 3.9186 20.531C4.37765 21.9577 5.27104 23.2053 6.47389 24.0994C7.67674 24.9935 9.12891 25.4894 10.6274 25.5178C9.13856 26.6881 7.43358 27.5533 5.61003 28.064C3.78647 28.5747 1.8801 28.7209 0 28.4942C3.28392 30.6015 7.10489 31.7193 11.0068 31.7142" fill="#1DA1F2"/>
</svg>
