<svg width="35" height="35" viewBox="0 0 35 35" fill="none" xmlns="http://www.w3.org/2000/svg">
<g clip-path="url(#clip0_169_21)">
<path d="M34.3029 9.02047C34.105 8.27587 33.715 7.59629 33.172 7.04976C32.6289 6.50323 31.9519 6.10891 31.2085 5.90627C28.4722 5.17047 17.5347 5.17047 17.5347 5.17047C17.5347 5.17047 6.59717 5.17047 3.8608 5.90627C3.11748 6.10891 2.44042 6.50323 1.89738 7.04976C1.35434 7.59629 0.964364 8.27587 0.766486 9.02047C0.0346681 11.7688 0.034668 17.5 0.034668 17.5C0.034668 17.5 0.0346681 23.2313 0.766486 25.9796C0.964364 26.7242 1.35434 27.4037 1.89738 27.9503C2.44042 28.4968 3.11748 28.8911 3.8608 29.0938C6.59717 29.8296 17.5347 29.8296 17.5347 29.8296C17.5347 29.8296 28.4722 29.8296 31.2085 29.0938C31.9519 28.8911 32.6289 28.4968 33.172 27.9503C33.715 27.4037 34.105 26.7242 34.3029 25.9796C35.0347 23.2313 35.0347 17.5 35.0347 17.5C35.0347 17.5 35.0347 11.7688 34.3029 9.02047Z" fill="#FF0302"/>
<path d="M13.9552 22.7043V12.2958L23.1029 17.5L13.9552 22.7043Z" fill="#FEFEFE"/>
</g>
<defs>
<clipPath id="clip0_169_21">
<rect width="35" height="35" fill="white"/>
</clipPath>
</defs>
</svg>
